<svg xmlns="http://www.w3.org/2000/svg" fill="none" viewBox="0 0 24 24" width="24px" height="24px" class="size-8"><g fill="currentColor" clip-path="url(#Arcade_svg__a)"><path fill-rule="evenodd" d="M2.029 13.27c.658-.298 4.873-1.925 8.11-3.166v3.633c0 .478.889.865 1.986.865s1.986-.387 1.986-.865V10c2.97 1.194 7 2.837 7.849 3.27 1.301.667 1.164 1.932 0 2.53-1.165.6-7.123 3.13-8.288 3.463-1.164.333-2.602.266-3.356 0-.6-.213-4.21-1.739-6.689-2.787l-1.598-.675c-1.439-.608-1.028-2.064 0-2.53Zm8.63 7.458c-.987-.267-6.621-2.597-9.315-3.729-.206-.086-.206.333-.206.932 0 .6.206.932.89 1.332.686.4 4.727 2.197 7.26 3.13 2.535.931 3.7.598 4.795.265 1.096-.332 6.644-2.796 7.877-3.395 1.08-.525 1.056-1.101 1.034-1.639a5 5 0 0 1-.007-.225c0-.48-.32-.466-.48-.4-2.305.977-7.122 3.023-7.944 3.396-1.028.466-2.671.666-3.904.333m-5.315-5.194c.908 0 1.644-.417 1.644-.932 0-.514-.736-.932-1.644-.932s-1.643.418-1.643.932c0 .515.736.932 1.643.932" clip-rule="evenodd"></path><path d="M16 5a4 4 0 1 1-8 0 4 4 0 0 1 8 0"></path></g><defs><clipPath id="Arcade_svg__a"><path fill="#fff" d="M0 0h24v24H0z"></path></clipPath></defs></svg>