<svg xmlns="http://www.w3.org/2000/svg" fill="none" viewBox="0 0 24 24" width="24px" height="24px" class="size-8"><g fill="currentColor" fill-rule="evenodd" clip-path="url(#Casino_svg__a)" clip-rule="evenodd"><path d="m11.452 21.141 6.075 1.004a2.993 2.993 0 0 0 3.44-2.465l1.91-11.565a2.993 2.993 0 0 0-2.465-3.44l-5.535-.915c.174.25.313.533.407.841l3.404 11.217a2.993 2.993 0 0 1-1.995 3.733z"></path><path d="M1.195 7.72A2.993 2.993 0 0 1 3.19 3.987l6.98-2.118a2.993 2.993 0 0 1 3.733 1.995l3.404 11.216a2.993 2.993 0 0 1-1.995 3.733l-6.98 2.119a2.993 2.993 0 0 1-3.733-1.995zm5.808 7.11c-.86-.734-.215-2.43.478-4.25.3-.785.607-1.593.806-2.357.59.524 1.295 1.025 1.98 1.512 1.587 1.127 3.067 2.178 2.759 3.267-.581 2.055-2.267 1.013-2.267 1.013-.348-.22-.438.91 1.085 1.224l-1.307.397-1.308.397c1.092-1.108.39-1.997.222-1.621 0 0-.822 1.803-2.448.418"></path></g><defs><clipPath id="Casino_svg__a"><path fill="#fff" d="M0 0h24v24H0z"></path></clipPath></defs></svg>