<svg xmlns="http://www.w3.org/2000/svg" fill="none" viewBox="0 0 24 24" width="24px" height="24px" class="size-8"><g fill="currentColor" clip-path="url(#FourD_svg__a)"><path fill-rule="evenodd" d="M12 22c5.523 0 10-4.477 10-10S17.523 2 12 2 2 6.477 2 12s4.477 10 10 10m0-3a7 7 0 1 0 0-14 7 7 0 0 0 0 14" clip-rule="evenodd"></path><path d="M12 16.11q-.969 0-1.731-.301-.758-.3-1.195-.817a1.76 1.76 0 0 1-.434-1.164q0-.496.246-.906.25-.41.672-.68.422-.274.941-.351v-.063a1.9 1.9 0 0 1-1.124-.605 1.7 1.7 0 0 1-.438-1.16q0-.63.398-1.118.4-.492 1.09-.773.692-.282 1.574-.281.884 0 1.575.285.69.28 1.09.773.398.489.398 1.114 0 .67-.445 1.16-.446.488-1.118.605v.063q.516.078.938.351.422.27.672.68t.25.906q0 .648-.438 1.164-.433.516-1.195.817-.757.3-1.727.3Zm0-1.5q.308 0 .546-.126a.96.96 0 0 0 .375-.343.9.9 0 0 0 .141-.5.9.9 0 0 0-.14-.493.94.94 0 0 0-.376-.335 1.16 1.16 0 0 0-.546-.126q-.306 0-.547.126a.97.97 0 0 0-.38.335.9.9 0 0 0-.136.493q0 .276.137.496.14.219.379.347.242.125.546.125Zm0-3.422q.273 0 .484-.114a.85.85 0 0 0 .453-.761.8.8 0 0 0-.121-.442.83.83 0 0 0-.332-.305 1 1 0 0 0-.485-.113q-.269 0-.484.113a.83.83 0 0 0-.332.305.8.8 0 0 0-.121.441.85.85 0 0 0 .453.762q.215.114.484.114Z"></path></g><defs><clipPath id="FourD_svg__a"><path fill="#fff" d="M0 0h24v24H0z"></path></clipPath></defs></svg>