<svg xmlns="http://www.w3.org/2000/svg" fill="none" viewBox="0 0 24 24" width="24px" height="24px" class="size-8"><g clip-path="url(#Slots_svg__a)"><path fill="currentColor" d="M10.43 11.97v-2h.408v.307c.203 0 .508-.23.813-.23s.763.307 1.17.23c.325-.062.339-.18.305-.23l.305.307c-.017.077-.132.4-.458 1.077-.325.677-.373 1.974-.356 2.538h-1.474c0-.769.356-1.538 1.017-2.538-.204.154-.814-.154-1.017-.154-.163 0-.272.462-.306.692zm6.57.215v-1.57h.338v.242c.169 0 .422-.181.676-.181.253 0 .634.241.971.18.27-.047.282-.14.254-.18l.253.241c-.014.06-.11.314-.38.845s-.31 1.55-.296 1.992h-1.225c0-.604.296-1.207.845-1.992-.169.12-.676-.12-.845-.12-.135 0-.225.362-.253.543zm-12 0v-1.57h.338v.242c.169 0 .422-.181.676-.181.253 0 .633.241.971.18.27-.047.282-.14.254-.18l.253.241c-.014.06-.11.314-.38.845s-.31 1.55-.296 1.992H5.591c0-.604.296-1.207.845-1.992-.169.12-.676-.12-.845-.12-.135 0-.225.362-.253.543z"></path><path fill="currentColor" fill-rule="evenodd" d="M5.14 20.571c0 .79.64 1.429 1.43 1.429h10.577a1.43 1.43 0 0 0 1.429-1.429v-1.38h2.382a.953.953 0 0 0 .953-.953V6.134a.953.953 0 0 0-.953-.952h-2.382V3.429c0-.79-.64-1.429-1.43-1.429H6.57c-.79 0-1.43.64-1.43 1.429v1.753H2.95a.953.953 0 0 0-.953.952v12.104c0 .526.426.953.953.953h2.19zM3.377 16c0 .526.427.952.953.952h4.002V7.048H4.33A.953.953 0 0 0 3.377 8zm5.86-8.952v9.904h5.242V7.048zm6.147 0h4.192c.527 0 .953.426.953.952v8a.953.953 0 0 1-.953.952h-4.192z" clip-rule="evenodd"></path><path stroke="currentColor" stroke-width="2" d="M9 6v12m6-12v12m6-12v12M3 6v12"></path></g><defs><clipPath id="Slots_svg__a"><path fill="#fff" d="M0 0h24v24H0z"></path></clipPath></defs></svg>