<svg xmlns="http://www.w3.org/2000/svg" fill="currentColor" viewBox="0 0 24 24" width="24px" height="24px" class="size-8"><g clip-path="url(#Sports_svg__a)"><path fill-rule="evenodd" d="M12 21a9 9 0 1 0 0-18 9 9 0 0 0 0 18m2.437-5.099L12 14.495 9.564 15.9v2.814L12 20.12l2.437-1.406zm-7.595-5.217 2.437 1.407v2.813l-2.437 1.407-2.436-1.407v-2.813zm12.753 1.407-2.437-1.407-2.437 1.407v2.813l2.437 1.407 2.436-1.407v-2.813ZM9.185 5.057l2.437 1.407v2.813l-2.437 1.407L6.75 9.277V6.464zm8.533 1.407-2.436-1.407-2.437 1.407v2.813l2.437 1.407 2.436-1.407z" clip-rule="evenodd"></path></g><defs><clipPath id="Sports_svg__a"><path fill="#fff" d="M0 0h24v24H0z"></path></clipPath></defs></svg>